<?xml version="1.0" encoding="utf-8"?>
<?xml-stylesheet type="text/xsl" href="rss1.xsl"?>
<rss version="2.0" xmlns:atom="http://www.w3.org/2005/Atom" xmlns:content="http://purl.org/rss/1.0/modules/content/" xmlns:dc="http://purl.org/dc/elements/1.1/" xmlns:media="http://search.yahoo.com/mrss/">
<channel>
 <title>Getty</title>
 <link>http://www.gettyimg.com/</link>
 <atom:link href="http://www.gettyimg.com/" rel="self" type="application/rss+xml" />

 
                <item>
                <title><![CDATA[【Apple Music】WEB-RiP - Green Day - Longview (2160p AM WEB-DL AAC2.0 H.265)]]></title>
                <link><![CDATA[https://sharemania.us/threads/green-day-longview-2160p-am-web-dl-aac2-0-h-265.238470/]]></link>
                <description><![CDATA[<article>
<blockquote class="messageText SelectQuoteContainer ugc baseHtml">
<div style="text-align: center"><img src="https://i.gyazo.com/3cae57ada72ea220dabf19534c47ed6e.png" class="bbCodeImage LbImage" alt="[​IMG]" data-url="https://i.gyazo.com/3cae57ada72ea220dabf19534c47ed6e.png" style=""> <br>
<div class="bbCodeBlock bbCodeCode">
<div class="type">Code:</div>
<pre>General
Unique ID                      : 82562322450156757923837260867338786247 (0x3E1CECC6CD894177A67C7BC0E6BC55C7)
Format                         : Matroska
Format version                 : Version 4
File size                      : 561 MiB
Duration                       : 3 min 48 s
Overall bit rate               : 20.6 Mb/s
Frame rate                     : 23.976 FPS
Encoded date                   : 2024-02-08 16:41:50 UTC
Writing application            : mkvmerge v67.0.0 ('Under Stars') 64-bit
Writing library                : libebml v1.4.2 + libmatroska v1.6.4
Cover                          : Yes
Attachments                    : cover.jpg

Video
ID                             : 1
Format                         : HEVC
Format/Info                    : High Efficiency Video Coding
Format profile                 : Main 10@L5@High
Codec ID                       : V_MPEGH/ISO/HEVC
Duration                       : 3 min 48 s
Bit rate                       : 20.4 Mb/s
Width                          : 2 880 pixels
Height                         : 2 160 pixels
Display aspect ratio           : 4:3
Frame rate mode                : Constant
Frame rate                     : 23.976 (23976/1000) FPS
Color space                    : YUV
Chroma subsampling             : 4:2:0
Bit depth                      : 10 bits
Bits/(Pixel*Frame)             : 0.136
Stream size                    : 554 MiB (99%)
Default                        : Yes
Forced                         : No
Color range                    : Limited
Color primaries                : BT.709
Transfer characteristics       : BT.709
Matrix coefficients            : BT.709

Audio
ID                             : 2
Format                         : AAC LC
Format/Info                    : Advanced Audio Codec Low Complexity
Codec ID                       : A_AAC-2
Duration                       : 3 min 48 s
Bit rate                       : 276 kb/s
Channel(s)                     : 2 channels
Channel layout                 : L R
Sampling rate                  : 48.0 kHz
Frame rate                     : 46.875 FPS (1024 SPF)
Compression mode               : Lossy
Stream size                    : 7.51 MiB (1%)
Default                        : Yes
Forced                         : No</pre>
</div>
<div class="bbCodeBlock bbCodeVfcHH HiddenContent">
<div class="attribution type">Hidden Content:</div>
<blockquote>You must either reply or click 'Like' to see the hidden information contained here.</blockquote>
</div></div>
<div class="messageTextEndMarker">&nbsp;</div>
</blockquote>
</article>]]></description>
                <author><![CDATA[Rey619Spear]]></author>
                </item>

                
                <item>
                <title><![CDATA[【General Music Discussion】Top-notch Сasual Dating Actual Girls]]></title>
                <link><![CDATA[https://sharemania.us/threads/top-notch-%D0%A1asual-dating-actual-girls.238471/]]></link>
                <description><![CDATA[<article>
<blockquote class="messageText SelectQuoteContainer ugc baseHtml">
Unlock a world of casual fun and excitement with the premier dating site. <br>
Living Women Superlative Сasual Dating <br>
<a href="http://meettomy.site" target="_blank" class="externalLink" rel="nofollow">Finest Сasual Dating</a>
<div class="messageTextEndMarker">&nbsp;</div>
</blockquote>
</article>]]></description>
                <author><![CDATA[eusebitoo]]></author>
                </item>

                </channel></rss>